<svg width="24" height="25" viewBox="0 0 24 25" fill="none" xmlns="http://www.w3.org/2000/svg">
<path d="M12 2.90002C10.0905 2.90002 8.25912 3.65859 6.90886 5.00886C5.55859 6.35912 4.80002 8.19047 4.80002 10.1V14.4032L3.95163 15.2516C3.78385 15.4194 3.66961 15.6332 3.62332 15.866C3.57704 16.0987 3.60081 16.34 3.69161 16.5592C3.78242 16.7784 3.93618 16.9658 4.13347 17.0977C4.33077 17.2296 4.56272 17.3 4.80002 17.3H19.2C19.4373 17.3 19.6693 17.2296 19.8666 17.0977C20.0639 16.9658 20.2176 16.7784 20.3084 16.5592C20.3992 16.34 20.423 16.0987 20.3767 15.866C20.3304 15.6332 20.2162 15.4194 20.0484 15.2516L19.2 14.4032V10.1C19.2 8.19047 18.4415 6.35912 17.0912 5.00886C15.7409 3.65859 13.9096 2.90002 12 2.90002ZM12 22.1C11.0452 22.1 10.1296 21.7207 9.45444 21.0456C8.77931 20.3705 8.40002 19.4548 8.40002 18.5H15.6C15.6 19.4548 15.2207 20.3705 14.5456 21.0456C13.8705 21.7207 12.9548 22.1 12 22.1Z" fill="#111827"/>
</svg>
