<svg width="35" height="35" viewBox="0 0 35 35" fill="none" xmlns="http://www.w3.org/2000/svg">
<g clip-path="url(#clip0_2360_632)">
<path d="M13.2283 17.5C13.2283 18.5438 12.8129 19.5435 12.0752 20.2809L6.71443 25.6407C6.6244 25.7307 6.53279 25.816 6.43486 25.895C6.20109 26.0892 5.94679 26.2519 5.68144 26.3829C5.13178 26.6561 4.53157 26.7919 3.93294 26.7919C2.9268 26.7919 1.91908 26.4082 1.15145 25.6391C-0.383817 24.1042 -0.383817 21.6138 1.15145 20.0772L3.72918 17.5L1.15145 14.9212C-0.383817 13.3862 -0.383817 10.8958 1.15145 9.35928C2.37556 8.13541 4.21093 7.8859 5.68144 8.61706C5.94995 8.74972 6.20583 8.91395 6.44276 9.10977C6.53595 9.18873 6.62756 9.27085 6.71443 9.3577L6.93082 9.57405L12.0752 14.7175C12.8144 15.4565 13.2283 16.4577 13.2283 17.5Z" fill="#1F2937"/>
<path d="M13.2282 17.5C13.2282 18.5438 12.8128 19.5435 12.0752 20.2809L6.71437 25.6407C6.62434 25.7307 6.53273 25.816 6.4348 25.8949C6.20103 26.0892 5.94673 26.2518 5.68138 26.3829C5.30704 26.1982 4.95797 25.9502 4.64681 25.6391C3.11154 24.1041 3.11154 21.6138 4.64681 20.0772L7.22454 17.5L4.64839 14.9212C3.11312 13.3862 3.11312 10.8958 4.64839 9.35928C4.95955 9.04818 5.30862 8.80183 5.68138 8.61707C5.94989 8.74972 6.20577 8.91395 6.4427 9.10977C6.53589 9.18873 6.6275 9.27085 6.71437 9.3577L6.93076 9.57405L12.0752 14.7175C12.8144 15.4565 13.2282 16.4577 13.2282 17.5Z" fill="#1F2937"/>
<path d="M34.9998 17.4999C34.9998 26.6134 27.5841 34.0277 18.4689 34.0277H10.5793C8.507 34.0277 6.80746 32.4248 6.65741 30.3893C6.64793 30.2929 6.64478 30.195 6.64478 30.094C6.64478 27.9226 8.40591 26.1602 10.5793 26.1602H18.4704C23.2468 26.1602 27.134 22.2754 27.134 17.4984C27.134 12.7229 23.2468 8.83652 18.4704 8.83652H10.5793C8.40749 8.83652 6.64478 7.07573 6.64478 4.90276C6.64478 4.80328 6.64793 4.70379 6.65741 4.60746C6.80746 2.57504 8.50542 0.972168 10.5793 0.972168H18.4704C27.5857 0.972168 34.9998 8.38645 34.9998 17.4999Z" fill="#1F2937"/>
<path d="M6.93069 9.5772C6.75221 9.44139 6.58794 9.28347 6.44263 9.11292C6.53582 9.19187 6.62743 9.27399 6.7143 9.36085L6.93069 9.5772Z" fill="#1F2937"/>
<path d="M6.71438 25.6406C6.62435 25.7306 6.53274 25.8159 6.43481 25.8949C6.58487 25.7164 6.75545 25.5554 6.93867 25.4164L6.71438 25.6406Z" fill="#1F2937"/>
<path d="M29.3469 17.4999C29.3469 25.1163 23.1506 31.3099 15.5343 31.3099H8.93831C8.05064 31.3099 7.24826 30.9593 6.65595 30.3892C6.64647 30.2929 6.64331 30.195 6.64331 30.0939C6.64331 27.9225 8.40445 26.1602 10.5778 26.1602H18.469C23.2454 26.1602 27.1325 22.2754 27.1325 17.4983C27.1325 12.7229 23.2454 8.8365 18.469 8.8365H10.5794C8.4076 8.8365 6.64489 7.0757 6.64489 4.90274C6.64489 4.80325 6.64805 4.70376 6.65753 4.60743C7.24984 4.03735 8.05222 3.68677 8.93989 3.68677H15.5343C23.1506 3.68993 29.3469 9.8835 29.3469 17.4999Z" fill="#1F2937"/>
</g>
<defs>
<clipPath id="clip0_2360_632">
<rect width="35" height="33.0555" fill="white" transform="translate(0 0.972168)"/>
</clipPath>
</defs>
</svg>
