<svg width="24" height="24" viewBox="0 0 24 24" fill="none" xmlns="http://www.w3.org/2000/svg">
<path fill-rule="evenodd" clip-rule="evenodd" d="M21.5999 12C21.5999 14.5461 20.5885 16.9879 18.7881 18.7882C16.9878 20.5886 14.546 21.6 11.9999 21.6C9.45382 21.6 7.01203 20.5886 5.21168 18.7882C3.41133 16.9879 2.3999 14.5461 2.3999 12C2.3999 9.45395 3.41133 7.01215 5.21168 5.2118C7.01203 3.41145 9.45382 2.40002 11.9999 2.40002C14.546 2.40002 16.9878 3.41145 18.7881 5.2118C20.5885 7.01215 21.5999 9.45395 21.5999 12ZM19.1999 12C19.1999 13.1916 18.9107 14.3148 18.3983 15.3048L16.5695 13.4748C16.8433 12.6273 16.8757 11.7202 16.6631 10.8552L18.5375 8.98082C18.9623 9.89882 19.1999 10.92 19.1999 12ZM13.0019 16.6956L14.8979 18.5916C13.9847 18.9937 12.9977 19.2009 11.9999 19.2C10.9573 19.2013 9.92698 18.9753 8.9807 18.5376L10.8551 16.6632C11.5591 16.8357 12.293 16.8468 13.0019 16.6956ZM7.3895 13.3404C7.15335 12.5273 7.13638 11.6662 7.3403 10.8444L7.2443 10.9404L5.4083 9.10082C5.00607 10.0144 4.79885 11.0018 4.7999 12C4.7999 13.1448 5.0675 14.2272 5.5427 15.1884L7.3907 13.3404H7.3895ZM8.6951 5.60042C9.71657 5.07245 10.8501 4.79792 11.9999 4.80002C13.1447 4.80002 14.2271 5.06762 15.1883 5.54282L13.3403 7.39082C12.419 7.12247 11.4385 7.13627 10.5251 7.43042L8.6951 5.60162V5.60042ZM14.3999 12C14.3999 12.6365 14.147 13.247 13.697 13.6971C13.2469 14.1472 12.6364 14.4 11.9999 14.4C11.3634 14.4 10.7529 14.1472 10.3028 13.6971C9.85276 13.247 9.5999 12.6365 9.5999 12C9.5999 11.3635 9.85276 10.7531 10.3028 10.303C10.7529 9.85288 11.3634 9.60002 11.9999 9.60002C12.6364 9.60002 13.2469 9.85288 13.697 10.303C14.147 10.7531 14.3999 11.3635 14.3999 12Z" fill="#111827"/>
</svg>
